<?xml version="1.0" standalone="no"?>
<!DOCTYPE svg PUBLIC "-//W3C//DTD SVG 20010904//EN"
 "http://www.w3.org/TR/2001/REC-SVG-20010904/DTD/svg10.dtd">
<svg version="1.0" xmlns="http://www.w3.org/2000/svg"
 width="1076.000000pt" height="521.000000pt" viewBox="0 0 1076.000000 521.000000"
 preserveAspectRatio="xMidYMid meet">

<g transform="translate(0.000000,521.000000) scale(0.100000,-0.100000)"
fill="#000000" stroke="none">
<path d="M2717 3826 l-76 -64 -93 29 c-50 16 -93 29 -94 29 -2 0 -24 -38 -49
-84 -25 -47 -54 -87 -63 -90 -9 -2 -54 -8 -99 -11 l-81 -7 -7 -61 c-14 -143
-9 -133 -88 -177 -40 -21 -78 -43 -86 -47 -11 -7 -9 -25 13 -102 l27 -94 -30
-38 c-17 -22 -45 -57 -63 -79 l-31 -40 63 -76 62 -76 -28 -94 c-15 -52 -25
-96 -23 -98 2 -2 40 -24 84 -48 89 -50 88 -49 100 -179 l6 -66 97 -9 97 -9 42
-75 c23 -41 46 -80 50 -87 6 -8 33 -4 102 18 l93 29 62 -52 c33 -29 68 -57 76
-64 12 -10 28 -2 93 51 l77 64 48 -15 c26 -8 68 -21 94 -28 l47 -15 48 87 48
87 97 9 98 9 4 31 c3 17 8 62 13 101 l8 70 82 45 c46 25 83 50 83 55 0 6 -12
49 -26 97 l-27 86 62 73 c33 40 61 77 61 82 0 5 -21 35 -48 66 -26 31 -53 64
-60 73 -11 14 -9 31 12 100 14 46 26 89 26 95 0 6 -38 32 -84 57 l-84 46 -7
72 c-12 136 -4 125 -103 133 -48 3 -92 8 -99 10 -7 2 -28 35 -47 72 -58 114
-47 109 -153 75 l-92 -29 -76 63 c-43 35 -78 64 -79 64 -1 0 -36 -29 -79 -64z
m234 -345 c157 -45 257 -123 315 -246 85 -179 62 -401 -59 -560 -63 -83 -149
-141 -263 -176 -65 -20 -88 -22 -368 -21 -305 1 -323 3 -309 39 3 7 13 13 22
13 9 0 35 9 58 19 73 34 73 32 73 441 0 432 2 422 -102 460 -27 9 -36 29 -21
43 3 4 137 7 297 7 255 0 299 -2 357 -19z"/>
<path d="M2650 3417 c-59 -20 -60 -25 -60 -424 l0 -361 26 -31 c30 -37 77 -51
164 -51 149 0 269 63 324 168 85 164 44 447 -85 587 -85 92 -266 147 -369 112z"/>
<path d="M5493 3680 c-35 -21 -53 -48 -53 -79 0 -12 -7 -21 -15 -21 -8 0 -15
-4 -15 -9 0 -5 7 -11 15 -15 23 -9 21 -131 -2 -145 -14 -8 -3 -10 42 -10 46 0
55 2 38 9 -21 8 -23 16 -23 75 l0 65 30 0 c20 0 30 5 30 15 0 10 -10 15 -31
15 -29 0 -30 2 -27 38 3 35 5 37 35 36 31 -2 50 17 37 37 -8 14 -26 11 -61
-11z"/>
<path d="M6033 3683 c-28 -5 -30 -19 -3 -26 15 -4 20 -14 20 -41 0 -36 0 -36
-44 -36 -37 0 -48 -5 -70 -31 -35 -41 -36 -100 -1 -134 26 -27 49 -31 91 -15
18 7 30 7 40 -1 7 -6 23 -8 34 -4 19 6 20 8 5 19 -14 10 -16 31 -13 144 3 145
7 138 -59 125z m5 -135 c7 -7 12 -36 12 -65 0 -48 -3 -55 -26 -65 -24 -11 -29
-9 -50 15 -25 30 -31 75 -14 108 12 22 59 26 78 7z"/>
<path d="M4394 3665 c-4 -9 -2 -21 4 -27 15 -15 44 -1 40 19 -4 23 -36 29 -44
8z"/>
<path d="M5310 3665 c-15 -17 -5 -35 20 -35 22 0 33 23 17 39 -15 15 -22 14
-37 -4z"/>
<path d="M5600 3665 c-15 -17 -5 -35 20 -35 22 0 33 23 17 39 -15 15 -22 14
-37 -4z"/>
<path d="M7760 3665 c-15 -18 -5 -35 20 -35 10 0 22 5 25 10 7 11 -12 40 -25
40 -4 0 -13 -7 -20 -15z"/>
<path d="M8269 3671 c-80 -26 -106 -71 -101 -173 3 -40 45 -83 96 -98 51 -14
83 -9 117 19 l24 19 -60 -5 c-55 -5 -63 -3 -93 22 -43 36 -58 92 -38 140 21
49 57 62 115 42 25 -9 48 -14 53 -11 11 7 10 31 0 38 -18 11 -88 15 -113 7z"/>
<path d="M4073 3656 c14 -11 17 -30 17 -125 0 -106 -1 -112 -22 -121 -16 -6 4
-9 70 -9 118 -1 153 13 183 75 34 72 11 147 -56 178 -44 21 -220 23 -192 2z
m165 -22 c53 -37 70 -138 32 -187 -24 -30 -78 -44 -109 -28 -19 11 -21 20 -21
115 0 56 3 106 7 109 12 13 68 7 91 -9z"/>
<path d="M6242 3657 c14 -11 17 -32 18 -113 1 -54 1 -105 1 -112 -1 -7 -11
-17 -23 -22 -16 -7 9 -9 85 -7 l109 2 34 37 c29 33 34 45 34 88 0 106 -46 140
-187 140 -74 -1 -85 -3 -71 -13z m167 -23 c50 -35 68 -140 31 -187 -23 -29
-80 -43 -110 -27 -18 10 -20 21 -20 114 0 56 3 106 7 109 12 13 69 7 92 -9z"/>
<path d="M7620 3612 c0 -4 -14 -16 -32 -27 -22 -13 -28 -20 -18 -23 25 -8 30
-24 30 -93 0 -78 9 -86 74 -67 l41 12 -40 5 -40 6 0 60 0 60 33 3 c21 2 32 9
32 19 0 11 -6 14 -22 10 -26 -7 -49 9 -41 29 3 8 0 14 -6 14 -6 0 -11 -4 -11
-8z"/>
<path d="M4395 3571 c-24 -5 -26 -8 -12 -13 14 -6 17 -20 17 -72 0 -51 -4 -67
-17 -75 -14 -8 -5 -10 37 -10 42 0 51 2 38 10 -15 8 -18 24 -18 89 0 44 -3 79
-7 79 -5 -1 -21 -4 -38 -8z"/>
<path d="M4500 3572 c0 -5 7 -15 15 -22 8 -7 15 -16 15 -20 0 -5 14 -39 30
-76 36 -79 41 -77 85 29 15 38 34 71 42 74 25 10 13 23 -22 23 -19 0 -35 -4
-35 -10 0 -5 5 -10 10 -10 15 0 13 -12 -11 -66 l-20 -48 -20 44 c-11 24 -18
54 -15 65 5 19 0 21 -34 23 -22 2 -40 -1 -40 -6z"/>
<path d="M4763 3556 c-23 -20 -28 -32 -28 -71 0 -37 5 -51 24 -66 35 -29 69
-34 105 -16 l31 16 -38 0 c-26 1 -45 8 -62 26 -38 37 -31 45 35 45 l60 0 0 33
c0 18 -5 38 -12 45 -21 21 -84 14 -115 -12z m85 -8 c25 -25 13 -38 -33 -38
-30 0 -45 4 -45 13 0 19 21 37 45 37 12 0 26 -5 33 -12z"/>
<path d="M4950 3570 c-22 -6 -23 -8 -7 -15 14 -6 17 -20 17 -71 0 -49 -4 -65
-17 -73 -14 -8 -3 -10 42 -10 46 0 55 2 38 9 -20 8 -23 16 -23 69 0 49 3 61
19 66 10 3 25 3 33 0 9 -4 18 1 22 10 8 21 -17 29 -45 14 -17 -9 -24 -9 -27 0
-4 12 -15 13 -52 1z"/>
<path d="M5137 3567 c-33 -24 -19 -67 33 -97 69 -41 51 -70 -27 -45 -17 6 -23
3 -23 -9 0 -30 83 -33 117 -4 30 24 14 57 -42 94 -72 46 -61 66 25 43 8 -2 15
3 15 11 0 20 -74 26 -98 7z"/>
<path d="M5305 3571 c-24 -5 -26 -8 -12 -13 14 -6 17 -20 17 -72 0 -51 -4 -67
-17 -75 -14 -8 -5 -10 36 -11 47 0 52 2 37 13 -15 11 -17 25 -14 90 2 47 -1
77 -7 76 -5 -1 -23 -4 -40 -8z"/>
<path d="M5600 3571 c-17 -5 -21 -9 -12 -15 17 -10 17 -142 0 -149 -7 -3 9 -6
36 -6 44 -1 48 1 32 12 -16 11 -18 25 -14 90 4 80 3 81 -42 68z"/>
<path d="M5743 3565 c-13 -9 -28 -33 -34 -54 -16 -54 7 -96 61 -112 34 -10 46
-10 73 4 l32 16 -42 0 c-45 1 -83 27 -83 56 0 11 13 15 54 15 46 0 56 3 61 20
4 13 0 31 -9 45 -19 30 -78 34 -113 10z m71 -11 c9 -3 16 -15 16 -25 0 -16 -8
-19 -46 -19 -25 0 -43 3 -41 8 2 4 7 15 10 25 6 17 32 22 61 11z"/>
<path d="M6594 3568 c-26 -12 -44 -48 -44 -87 0 -65 78 -109 136 -77 l29 15
-36 1 c-39 0 -89 32 -89 55 0 10 17 15 58 17 53 3 57 5 60 29 6 50 -56 76
-114 47z m74 -35 c3 -21 -1 -23 -37 -23 -27 0 -41 4 -41 13 0 41 72 50 78 10z"/>
<path d="M6766 3570 c-16 -5 -16 -7 -2 -19 22 -18 22 -114 0 -135 -14 -15 -11
-16 31 -16 42 0 45 1 31 16 -11 10 -16 34 -16 69 0 44 4 56 20 65 14 8 26 8
40 0 17 -9 20 -21 20 -75 0 -41 -4 -65 -12 -68 -7 -3 9 -6 36 -6 43 -1 47 1
32 12 -14 10 -17 25 -14 71 3 50 6 60 25 67 34 12 55 -11 60 -68 4 -38 1 -53
-12 -66 -15 -16 -13 -17 30 -17 42 0 45 1 31 16 -11 11 -16 34 -16 78 0 35 -5
67 -12 74 -15 15 -63 16 -89 1 -13 -7 -24 -7 -32 -1 -13 11 -122 13 -151 2z"/>
<path d="M7160 3567 c-13 -7 -30 -28 -38 -48 -12 -31 -11 -41 1 -72 12 -28 24
-38 57 -48 34 -10 46 -10 73 4 l32 16 -42 0 c-29 1 -50 8 -63 21 -35 35 -26
49 38 52 51 3 57 5 60 26 8 52 -59 79 -118 49z m68 -19 c25 -25 13 -38 -33
-38 -49 0 -50 1 -35 31 12 21 50 25 68 7z"/>
<path d="M7336 3571 c-14 -5 -16 -10 -8 -15 16 -10 16 -128 0 -144 -9 -9 -1
-12 38 -12 38 1 45 3 32 11 -14 8 -18 23 -18 70 0 53 3 61 23 68 44 17 62 -1
65 -63 2 -34 -2 -64 -9 -72 -10 -12 -4 -14 32 -13 24 0 38 3 32 6 -9 3 -13 27
-13 69 0 36 -5 74 -10 85 -12 21 -59 26 -91 9 -13 -7 -19 -7 -19 0 0 11 -26
12 -54 1z"/>
<path d="M7760 3571 c-17 -5 -21 -9 -12 -15 16 -10 16 -128 0 -144 -9 -9 -1
-12 37 -12 43 0 47 2 30 13 -15 12 -17 24 -13 90 5 81 5 81 -42 68z"/>
<path d="M7903 3570 c-35 -14 -27 -23 14 -17 41 7 63 -5 63 -34 0 -14 -12 -22
-44 -30 -25 -6 -52 -19 -62 -30 -15 -17 -16 -20 0 -44 18 -27 45 -32 77 -14
15 7 24 7 35 -1 8 -7 25 -9 41 -5 24 6 26 8 10 16 -13 8 -17 23 -17 70 0 81
-11 99 -58 98 -20 0 -47 -4 -59 -9z m77 -108 c0 -25 -19 -42 -47 -42 -34 0
-30 36 5 48 39 15 42 14 42 -6z"/>
<path d="M8483 3570 c-35 -14 -27 -22 20 -18 39 3 42 1 45 -23 3 -23 -3 -28
-50 -45 -45 -16 -53 -23 -56 -46 -4 -38 33 -56 78 -38 24 10 33 10 45 0 10 -8
23 -9 42 -3 27 10 28 10 6 17 -21 7 -23 14 -23 71 0 35 -3 70 -6 79 -7 18 -64
21 -101 6z m65 -117 c-3 -24 -8 -28 -33 -28 -37 0 -40 24 -5 42 36 18 42 16
38 -14z"/>
<path d="M8676 3571 c-14 -5 -16 -10 -8 -15 7 -4 12 -33 12 -71 0 -50 -4 -66
-17 -74 -14 -8 -3 -10 42 -10 46 0 55 2 38 9 -20 8 -23 16 -23 69 0 49 3 61
19 66 10 3 25 3 33 0 9 -4 18 1 22 10 8 21 -17 29 -45 14 -17 -9 -24 -9 -27 0
-4 12 -18 13 -46 2z"/>
<path d="M8871 3563 c-30 -25 -41 -71 -27 -113 9 -28 19 -38 53 -49 35 -13 46
-13 70 -1 l28 14 -42 6 c-46 7 -68 21 -76 50 -5 18 0 20 53 20 50 0 60 3 65
20 4 13 0 31 -9 45 -20 31 -82 35 -115 8z m77 -15 c25 -25 13 -38 -33 -38 -49
0 -50 1 -35 31 12 21 50 25 68 7z"/>
<path d="M6505 3193 c-149 -20 -292 -130 -352 -272 -25 -60 -27 -77 -28 -191
0 -123 1 -127 34 -194 58 -118 159 -196 305 -236 110 -30 182 -25 271 20 37
19 85 50 108 71 35 30 40 39 29 51 -11 14 -20 12 -75 -11 -53 -22 -77 -26
-162 -26 -89 0 -106 3 -156 28 -130 63 -202 167 -222 316 -18 141 25 256 120
316 45 28 54 30 148 30 97 0 102 -1 189 -43 101 -48 113 -46 134 27 17 55 16
59 -25 80 -71 35 -202 49 -318 34z"/>
<path d="M4076 3165 c-3 -10 8 -20 40 -34 74 -33 75 -41 72 -408 l-3 -315 -28
-24 c-15 -13 -45 -29 -67 -35 -37 -11 -51 -31 -31 -43 5 -3 125 -6 267 -6 229
-1 266 1 321 18 200 62 317 229 316 447 -2 202 -110 340 -315 399 -79 23 -563
24 -572 1z m515 -72 c122 -54 198 -169 218 -334 19 -143 -16 -269 -91 -333
-91 -78 -302 -90 -358 -19 -19 25 -20 38 -20 342 0 332 0 334 45 360 30 18
152 8 206 -16z"/>
<path d="M5090 3160 c0 -14 7 -20 21 -20 12 0 36 -15 55 -34 l34 -34 0 -325 0
-325 -24 -29 c-14 -16 -43 -35 -65 -42 -43 -12 -59 -27 -44 -42 5 -5 126 -9
268 -9 233 -1 267 1 325 19 171 53 284 185 312 366 28 180 -45 347 -188 431
-94 55 -153 64 -436 64 -251 0 -258 -1 -258 -20z m517 -70 c65 -28 146 -111
178 -183 52 -120 59 -284 15 -385 -26 -61 -95 -127 -149 -142 -104 -31 -223
-24 -271 16 l-30 26 0 322 c0 338 0 339 45 365 31 18 152 8 212 -19z"/>
</g>
</svg>
