<svg xmlns="http://www.w3.org/2000/svg" version="1.0" width="1156.000000" height="304.000000" preserveAspectRatio="xMidYMid meet"><rect id="backgroundrect" width="100%" height="100%" x="0" y="0" fill="none" stroke="none"/>


<g class="currentLayer" style=""><title>Layer 1</title><g transform="translate(0,304) scale(0.10000000149011612,-0.10000000149011612) " fill="#ffffff" stroke="none" id="svg_1" class="selected" fill-opacity="1">
<path d="M1435 2925 c-49 -42 -104 -87 -122 -101 l-31 -25 -94 30 c-51 17 -100 31 -109 31 -8 0 -19 4 -25 9 -5 5 -25 12 -44 16 l-36 6 -64 -125 c-36 -69 -70 -132 -76 -141 -9 -12 -43 -18 -146 -26 -73 -6 -142 -12 -154 -14 -18 -4 -22 -18 -37 -157 -19 -180 -7 -163 -183 -251 -90 -46 -115 -63 -111 -75 3 -10 24 -79 47 -155 l42 -137 -97 -121 c-80 -98 -96 -123 -89 -139 5 -11 49 -67 98 -125 101 -121 97 -87 36 -280 -18 -55 -34 -107 -37 -116 -3 -11 5 -22 24 -31 119 -59 245 -133 250 -144 3 -8 13 -81 22 -162 l16 -147 149 -12 c81 -7 154 -18 162 -24 8 -6 28 -39 45 -73 29 -56 99 -186 105 -195 3 -3 29 4 204 55 30 9 63 21 73 26 20 10 42 -5 197 -131 41 -33 78 -61 82 -61 4 0 13 6 20 13 18 16 97 81 170 139 49 38 64 45 81 38 12 -5 49 -16 82 -25 33 -10 78 -23 100 -30 85 -28 92 -28 113 8 22 35 100 179 116 214 15 31 22 33 183 46 106 8 144 15 148 25 3 8 10 72 16 141 15 175 10 162 81 199 69 35 160 86 195 108 21 13 22 16 9 52 -7 20 -23 71 -35 112 -13 41 -27 85 -32 98 -16 41 -10 56 64 143 134 159 128 151 114 168 -7 9 -38 45 -68 81 -104 123 -122 149 -116 173 6 21 16 55 53 177 31 102 29 105 -61 155 -44 24 -104 56 -133 71 -60 31 -56 21 -72 199 -6 71 -16 135 -21 141 -6 7 -58 15 -127 19 -138 8 -188 19 -196 43 -6 20 -103 197 -127 232 l-15 23 -75 -22 c-40 -13 -107 -34 -147 -48 l-74 -24 -76 63 c-43 34 -79 65 -82 68 -9 10 -88 70 -91 70 -2 -1 -44 -34 -94 -75z m270 -561 c276 -55 460 -180 569 -390 90 -172 110 -400 56 -629 -28 -116 -161 -339 -232 -388 -12 -8 -38 -29 -56 -44 -43 -38 -182 -109 -252 -129 -128 -37 -301 -55 -415 -44 -106 11 -568 11 -623 1 -39 -8 -45 -6 -58 15 -21 31 -9 62 24 70 54 12 118 38 148 60 66 48 64 30 64 679 0 525 -2 591 -17 622 -21 44 -70 84 -130 104 -47 15 -63 38 -50 72 3 9 119 13 448 15 374 2 457 0 524 -14z" id="svg_2" fill="#ffffff" fill-opacity="1"/>
<path d="M1297 2246 c-51 -19 -75 -42 -88 -85 -6 -24 -9 -233 -7 -613 l3 -577 39 -40 c49 -50 126 -71 259 -71 382 0 589 213 590 605 1 395 -173 674 -480 769 -74 23 -267 31 -316 12z" id="svg_3" fill="#ffffff" fill-opacity="1"/>
<path d="M5865 2683 c-31 -8 -105 -84 -105 -109 0 -36 -18 -74 -35 -74 -22 0 -18 -27 5 -33 18 -5 20 -14 21 -89 2 -120 0 -131 -24 -150 -21 -17 -19 -18 71 -18 50 0 92 2 92 5 0 3 -16 11 -35 20 l-36 14 3 103 3 103 48 3 c39 3 47 6 47 23 0 15 -7 19 -34 19 -58 0 -66 7 -66 61 0 40 4 51 24 64 19 13 29 14 45 6 37 -20 51 -14 51 24 0 32 -3 35 -27 34 -16 -1 -37 -3 -48 -6z" id="svg_4" fill="#ffffff" fill-opacity="1"/>
<path d="M6730 2670 c-8 -5 -25 -10 -37 -10 -13 0 -23 -4 -23 -10 0 -5 8 -10 18 -10 30 0 42 -22 42 -77 l0 -53 -64 0 c-55 0 -69 -4 -96 -26 -138 -117 -43 -333 119 -268 39 16 43 15 61 -1 18 -16 25 -17 60 -6 44 13 52 28 18 33 -23 3 -23 3 -26 221 l-2 217 -28 0 c-15 0 -34 -5 -42 -10z m-17 -218 c14 -12 17 -32 17 -99 0 -83 0 -83 -32 -103 -34 -21 -52 -16 -95 23 -25 23 -39 89 -29 142 12 60 89 81 139 37z" id="svg_5" fill="#ffffff" fill-opacity="1"/>
<path d="M4090 2645 c-26 -32 13 -81 48 -59 21 14 28 54 10 65 -20 13 -44 11 -58 -6z" id="svg_6" fill="#ffffff" fill-opacity="1"/>
<path d="M5542 2639 c-11 -18 -11 -24 4 -40 33 -36 93 -2 68 39 -16 26 -56 27 -72 1z" id="svg_7" fill="#ffffff" fill-opacity="1"/>
<path d="M6012 2648 c-30 -30 0 -75 42 -64 29 7 40 31 26 57 -12 21 -50 25 -68 7z" id="svg_8" fill="#ffffff" fill-opacity="1"/>
<path d="M9460 2645 c-15 -18 -10 -45 12 -58 22 -15 68 6 68 31 0 39 -55 58 -80 27z" id="svg_9" fill="#ffffff" fill-opacity="1"/>
<path d="M10252 2642 c-66 -24 -86 -42 -117 -108 -37 -78 -35 -164 5 -227 60 -95 207 -132 297 -75 57 37 65 53 22 44 -105 -22 -169 -15 -213 23 -83 72 -96 216 -24 283 25 24 39 28 84 28 36 0 69 -7 95 -21 23 -11 47 -18 55 -15 19 7 18 50 -1 66 -26 22 -143 23 -203 2z" id="svg_10" fill="#ffffff" fill-opacity="1"/>
<path d="M3550 2640 c0 -6 11 -15 25 -20 l25 -10 0 -173 c0 -156 -2 -176 -18 -190 -10 -10 -24 -17 -30 -17 -7 0 -12 -4 -12 -10 0 -6 53 -10 139 -10 133 0 141 1 192 28 36 19 64 43 84 72 27 41 30 53 30 126 0 71 -3 85 -27 121 -19 28 -44 49 -82 67 -51 24 -65 26 -190 26 -86 0 -136 -4 -136 -10z m297 -62 c54 -52 67 -84 67 -169 1 -67 -2 -79 -26 -111 -33 -43 -84 -63 -142 -55 -72 10 -79 28 -74 198 4 177 7 184 87 176 43 -5 61 -12 88 -39z" id="svg_11" fill="#ffffff" fill-opacity="1"/>
<path d="M7020 2640 c0 -5 4 -10 9 -10 5 0 17 -7 25 -16 13 -13 16 -44 16 -185 l0 -170 -30 -17 c-16 -9 -30 -20 -30 -24 0 -12 265 -9 297 3 151 56 204 249 99 362 -49 53 -103 67 -252 67 -83 0 -134 -4 -134 -10z m257 -37 c120 -56 152 -261 53 -335 -31 -23 -116 -33 -152 -19 l-28 11 0 168 c0 117 4 172 12 180 17 17 74 15 115 -5z" id="svg_12" fill="#ffffff" fill-opacity="1"/>
<path d="M9234 2549 c-10 -12 -36 -30 -57 -40 -38 -20 -42 -39 -7 -39 26 0 30 -19 30 -131 0 -87 3 -102 21 -120 22 -22 56 -21 127 4 46 16 40 27 -16 27 -26 0 -53 5 -60 12 -7 7 -12 44 -12 95 0 93 8 103 74 103 31 0 36 3 36 24 0 22 -3 24 -40 19 -49 -7 -72 9 -64 43 8 30 -7 31 -32 3z" id="svg_13" fill="#ffffff" fill-opacity="1"/>
<path d="M4095 2498 c-52 -14 -53 -15 -27 -34 20 -14 22 -24 22 -114 0 -89 -2 -101 -20 -112 -35 -22 -22 -28 55 -28 78 0 90 6 54 28 -19 12 -20 20 -17 143 3 143 8 136 -67 117z" id="svg_14" fill="#ffffff" fill-opacity="1"/>
<path d="M4700 2490 c-49 -26 -73 -72 -73 -139 0 -31 5 -66 11 -78 33 -61 157 -88 217 -48 l29 20 -60 3 c-49 2 -67 8 -92 30 -17 15 -34 39 -38 54 l-6 27 94 3 93 3 3 47 c3 40 -1 52 -22 73 -31 31 -103 34 -156 5z m115 -46 c26 -40 6 -56 -68 -52 -33 2 -62 8 -64 14 -2 6 6 23 17 37 30 38 90 38 115 1z" id="svg_15" fill="#ffffff" fill-opacity="1"/>
<path d="M4983 2496 c-43 -16 -49 -23 -24 -31 20 -6 21 -14 21 -115 0 -100 -2 -109 -20 -115 -45 -14 -15 -25 70 -25 53 0 90 4 90 10 0 6 -9 10 -19 10 -39 0 -51 26 -51 114 0 97 8 109 72 104 40 -3 43 -1 46 25 5 38 -21 45 -69 17 l-40 -22 -6 21 c-6 23 -22 25 -70 7z" id="svg_16" fill="#ffffff" fill-opacity="1"/>
<path d="M5271 2484 c-23 -19 -31 -34 -31 -57 1 -43 15 -59 85 -97 97 -52 107 -68 55 -90 -25 -10 -35 -9 -73 9 -58 28 -69 27 -65 -6 2 -21 10 -29 38 -36 46 -12 113 -1 144 24 20 16 26 30 26 58 0 44 -13 59 -86 95 -56 28 -89 59 -79 75 9 16 78 13 101 -4 25 -19 31 -19 44 4 16 32 -12 51 -75 51 -43 0 -60 -5 -84 -26z" id="svg_17" fill="#ffffff" fill-opacity="1"/>
<path d="M5555 2498 c-16 -5 -37 -12 -45 -14 -10 -4 -8 -8 10 -17 24 -12 25 -18 28 -112 3 -99 3 -100 -25 -122 l-28 -23 83 0 c84 0 97 6 62 28 -18 11 -20 23 -20 142 0 143 2 141 -65 118z" id="svg_18" fill="#ffffff" fill-opacity="1"/>
<path d="M6025 2498 c-16 -5 -36 -12 -44 -14 -9 -3 -7 -9 8 -22 19 -15 21 -29 23 -116 2 -93 1 -99 -23 -117 l-24 -19 78 0 c80 0 92 6 56 28 -20 13 -21 20 -17 143 3 141 5 138 -57 117z" id="svg_19" fill="#ffffff" fill-opacity="1"/>
<path d="M6249 2486 c-51 -35 -72 -85 -67 -154 4 -46 10 -60 36 -83 59 -53 148 -59 207 -15 18 14 15 15 -43 16 -59 0 -67 3 -98 34 -19 19 -34 43 -34 55 0 20 5 21 89 21 84 0 89 1 95 23 11 41 6 65 -20 96 -23 27 -32 31 -78 31 -38 0 -61 -6 -87 -24z m115 -35 c10 -11 16 -28 14 -38 -3 -15 -15 -19 -71 -21 -73 -3 -77 0 -52 48 13 25 22 30 54 30 25 0 44 -7 55 -19z" id="svg_20" fill="#ffffff" fill-opacity="1"/>
<path d="M7605 2493 c-39 -21 -51 -37 -70 -95 -31 -90 14 -167 109 -189 48 -10 57 -9 102 12 l49 23 -65 6 c-36 3 -75 12 -88 20 -19 13 -52 66 -52 84 0 3 42 6 94 6 93 0 94 0 100 26 10 40 -2 81 -31 104 -32 25 -105 26 -148 3z m110 -47 c27 -41 11 -56 -61 -56 -70 0 -80 12 -48 58 22 32 88 31 109 -2z" id="svg_21" fill="#ffffff" fill-opacity="1"/>
<path d="M7895 2500 c-11 -5 -29 -11 -40 -15 -18 -6 -18 -7 5 -18 24 -12 25 -18 28 -109 2 -87 0 -100 -18 -118 -11 -11 -20 -22 -20 -25 0 -3 32 -5 70 -5 39 0 70 2 70 5 0 3 -9 14 -20 25 -17 17 -20 33 -20 109 0 98 8 114 60 114 55 0 70 -25 70 -121 0 -74 -3 -89 -22 -109 l-21 -23 71 0 c74 0 84 4 56 25 -12 8 -18 34 -21 97 -6 107 3 128 56 128 59 0 71 -21 71 -120 0 -72 -3 -87 -22 -107 l-21 -23 76 0 c45 0 77 4 77 10 0 6 -7 10 -15 10 -24 0 -35 44 -35 146 0 82 -3 97 -21 115 -17 17 -30 20 -67 16 -26 -2 -61 -10 -79 -17 -28 -12 -34 -12 -51 3 -23 21 -74 22 -113 2 -26 -14 -30 -14 -35 0 -7 16 -37 19 -69 5z" id="svg_22" fill="#ffffff" fill-opacity="1"/>
<path d="M8510 2488 c-56 -39 -74 -72 -75 -136 0 -85 42 -132 131 -147 33 -5 52 -1 90 17 l49 23 -64 3 c-70 3 -104 20 -127 63 -24 47 -20 49 76 49 89 0 91 0 101 27 13 35 4 69 -26 99 -33 33 -108 34 -155 2z m112 -42 c19 -43 5 -56 -62 -56 -55 0 -60 2 -60 22 0 35 29 58 72 58 31 0 41 -5 50 -24z" id="svg_23" fill="#ffffff" fill-opacity="1"/>
<path d="M8793 2496 c-35 -13 -53 -26 -35 -26 6 0 18 -7 27 -16 13 -13 16 -35 14 -106 -1 -80 -4 -90 -25 -107 -13 -10 -24 -22 -24 -25 0 -3 34 -6 75 -6 77 0 90 6 55 28 -18 11 -20 23 -20 106 0 106 7 118 65 118 59 0 65 -12 65 -124 0 -78 -3 -100 -15 -104 -35 -14 -10 -24 55 -24 39 0 70 2 70 5 0 3 -9 14 -20 25 -17 17 -20 33 -20 119 0 84 -3 102 -21 125 -24 31 -75 35 -132 11 -31 -13 -36 -13 -41 0 -6 17 -28 17 -73 1z" id="svg_24" fill="#ffffff" fill-opacity="1"/>
<path d="M9475 2498 c-16 -5 -36 -12 -44 -14 -9 -3 -6 -10 13 -25 25 -19 26 -25 26 -109 0 -83 -2 -90 -25 -108 -14 -11 -25 -23 -25 -26 0 -3 34 -6 75 -6 41 0 75 2 75 5 0 3 -10 15 -21 26 -21 21 -22 28 -16 145 6 137 8 134 -58 112z" id="svg_25" fill="#ffffff" fill-opacity="1"/>
<path d="M9700 2494 c-41 -18 -44 -20 -36 -32 3 -6 25 -6 56 0 68 12 92 -1 88 -49 -3 -36 -5 -37 -69 -57 -75 -23 -109 -49 -109 -80 0 -63 74 -93 136 -57 l37 22 20 -21 c16 -18 26 -21 56 -15 20 4 39 9 43 11 15 10 8 23 -14 26 -22 3 -23 8 -28 115 -7 137 -17 153 -94 153 -28 -1 -67 -8 -86 -16z m110 -189 c0 -39 -20 -55 -69 -55 -31 0 -47 23 -36 51 6 15 84 48 98 42 4 -2 7 -20 7 -38z" id="svg_26" fill="#ffffff" fill-opacity="1"/>
<path d="M10617 2493 c-21 -9 -36 -21 -34 -27 3 -6 8 -10 13 -10 95 14 102 14 118 -2 11 -10 16 -28 14 -47 -3 -29 -8 -32 -78 -54 -80 -25 -100 -41 -100 -83 0 -58 76 -86 136 -51 l37 22 20 -21 c16 -18 26 -21 56 -15 20 4 39 9 43 11 15 10 8 24 -12 24 -30 0 -38 26 -39 135 -2 122 -11 135 -85 134 -28 -1 -68 -8 -89 -16z m113 -183 c0 -38 -24 -60 -65 -60 -35 0 -51 21 -40 51 6 15 84 48 98 42 4 -2 7 -17 7 -33z" id="svg_27" fill="#ffffff" fill-opacity="1"/>
<path d="M10945 2500 c-11 -5 -28 -11 -39 -14 -17 -6 -17 -7 4 -24 21 -17 23 -26 21 -113 -1 -80 -4 -96 -21 -111 -11 -9 -20 -19 -20 -22 0 -3 41 -6 90 -6 53 0 90 4 90 10 0 6 -8 10 -18 10 -10 0 -26 6 -36 13 -16 12 -18 27 -17 97 2 104 10 114 73 106 l48 -7 0 31 c0 39 -24 49 -62 27 -37 -21 -58 -22 -58 -2 0 16 -23 19 -55 5z" id="svg_28" fill="#ffffff" fill-opacity="1"/>
<path d="M11253 2490 c-66 -40 -94 -151 -53 -217 38 -64 125 -86 198 -51 l47 22 -67 5 c-73 7 -108 29 -127 82 l-10 28 97 3 97 3 3 46 c2 38 -1 50 -24 72 -22 22 -36 27 -78 27 -33 0 -62 -7 -83 -20z m111 -39 c10 -11 16 -28 14 -38 -3 -15 -15 -19 -71 -21 -60 -3 -67 -1 -67 16 0 53 88 83 124 43z" id="svg_29" fill="#ffffff" fill-opacity="1"/>
<path d="M4250 2491 c0 -5 10 -21 23 -35 12 -13 43 -73 68 -133 57 -133 73 -142 109 -56 47 115 79 179 99 198 32 28 26 35 -34 35 -52 0 -73 -14 -40 -26 19 -8 19 -31 1 -66 -8 -14 -19 -42 -26 -62 -10 -32 -40 -51 -40 -26 0 6 -11 33 -25 62 -27 55 -31 83 -15 93 25 16 5 25 -55 25 -36 0 -65 -4 -65 -9z" id="svg_30" fill="#ffffff" fill-opacity="1"/>
<path d="M7448 1885 c-42 -7 -84 -18 -95 -23 -10 -5 -34 -12 -53 -16 -120 -23 -318 -201 -379 -342 -12 -27 -26 -58 -31 -69 -35 -76 -45 -144 -45 -295 1 -157 10 -211 51 -289 8 -14 14 -30 14 -34 0 -4 18 -34 39 -66 45 -66 152 -167 208 -196 21 -10 45 -24 53 -31 19 -14 145 -57 228 -78 84 -21 225 -22 279 -3 148 54 333 181 333 227 0 37 -34 42 -92 16 -29 -13 -69 -28 -88 -34 -56 -17 -195 -41 -216 -37 -10 2 -53 9 -94 16 -41 7 -79 15 -85 19 -5 4 -31 14 -58 24 -52 20 -152 89 -198 139 -39 42 -104 152 -119 202 -7 22 -18 51 -24 64 -7 14 -11 87 -11 180 0 146 2 160 27 226 67 169 203 256 401 255 113 -1 183 -20 313 -85 60 -30 117 -55 125 -55 23 0 45 28 68 88 29 73 27 106 -6 130 -103 70 -347 100 -545 67z" id="svg_31" fill="#ffffff" fill-opacity="1"/>
<path d="M3576 1846 c-6 -23 10 -46 31 -46 21 0 86 -35 106 -58 42 -46 47 -103 47 -567 0 -472 -6 -533 -50 -580 -21 -22 -103 -60 -145 -67 -15 -3 -20 -11 -20 -36 l0 -33 415 -1 415 -1 100 28 c55 16 122 41 148 57 26 15 52 28 56 28 15 0 151 132 181 175 95 138 132 265 133 450 0 144 -12 203 -67 315 -69 144 -206 261 -368 314 -125 41 -190 46 -590 44 -374 -3 -387 -4 -392 -22z m700 -87 c183 -32 314 -133 398 -304 63 -129 79 -202 79 -370 0 -77 -5 -162 -12 -189 -19 -79 -62 -158 -116 -211 -92 -91 -192 -125 -364 -125 -155 0 -224 29 -257 107 -20 47 -20 969 0 1016 33 78 122 103 272 76z" id="svg_32" fill="#ffffff" fill-opacity="1"/>
<path d="M5200 1837 c0 -18 6 -30 18 -33 62 -20 108 -53 130 -94 22 -44 22 -46 22 -531 0 -268 -3 -501 -6 -519 -10 -48 -64 -96 -131 -116 -73 -22 -90 -36 -77 -64 9 -20 15 -21 424 -22 395 -1 419 0 495 21 203 54 373 186 452 351 23 47 49 110 58 140 36 116 36 325 0 440 -16 53 -71 170 -85 180 -3 3 -19 22 -35 43 -64 86 -202 168 -347 208 -80 22 -97 23 -500 24 l-418 0 0 -28z m690 -77 c111 -17 192 -56 273 -129 106 -98 174 -234 202 -402 19 -120 19 -196 -1 -300 -20 -107 -56 -180 -120 -244 -88 -89 -166 -116 -350 -122 -143 -5 -213 14 -255 70 l-24 32 0 512 0 512 28 29 c48 50 119 62 247 42z" id="svg_33" fill="#ffffff" fill-opacity="1"/>
</g><rect fill="#ffffff" stroke="#222222" stroke-width="2" stroke-linejoin="round" stroke-dashoffset="" fill-rule="nonzero" id="svg_34" x="726" y="124" width="0" height="1" style="color: rgb(0, 0, 0);"/></g></svg>